<svg xmlns="http://www.w3.org/2000/svg" width="89" height="42" viewBox="0 0 89 42">
    <defs>
        <clipPath id="9jv8sewfda">
            <path data-name="사각형 719" style="stroke:#707070;fill:#fff" d="M0 0h89v42H0z"/>
        </clipPath>
        <clipPath id="pdn1b3lf1b">
            <path data-name="사각형 329" transform="translate(-.094)" style="stroke:#707070;fill:#fff" d="M0 0h87v44H0z"/>
        </clipPath>
        <clipPath id="4tckctk0zc">
            <path data-name="사각형 165" style="fill:none" d="M0 0h85.666v35.775H0z"/>
        </clipPath>
    </defs>
    <g data-name="img_logo" style="clip-path:url(#9jv8sewfda)">
        <g data-name="마스크 그룹 48" transform="translate(2.094)" style="clip-path:url(#pdn1b3lf1b)">
            <g data-name="그룹 292">
                <g data-name="그룹 291" style="clip-path:url(#4tckctk0zc)" transform="translate(-.249 2.971)">
                    <path data-name="패스 27001" d="M16.7 46.859 9.3 38.2l6.353-7.158h-4.6l-5.041 5.577V26.1H0a5.292 5.292 0 0 1 2.1 4.024v16.735h3.912v-6.694l5.808 6.694z" transform="translate(0 -11.466)" style="fill:#fff"/>
                    <path data-name="패스 27002" d="M117.615 34.908v15.818H113.7V38.931a5.293 5.293 0 0 0-2.1-4.023z" transform="translate(-50.243 -15.333)" style="fill:#fff"/>
                    <path data-name="패스 27003" d="m141.345 47.393 1.872 3.333h-15.381l7.9-12.484h-7.38v-3.334h14.521l-8.573 12.484z" transform="translate(-57.551 -15.333)" style="fill:#fff"/>
                    <path data-name="패스 27004" d="M38.26 42.3v-7.925h2.746l1.873-3.334H38.26V26.1l-3.91 2.283v2.654h-2.881v3.334h2.881v8.139a4.3 4.3 0 0 0 4.26 4.345h3.1v-3.33h-2.246a1.216 1.216 0 0 1-1.2-1.229" transform="translate(-14.167 -11.466)" style="fill:#fff"/>
                    <path data-name="패스 27005" d="m82.045 34.583-3.88 8.332-4.509-8.747-4.511 8.749-3.879-8.334H59.18a9.64 9.64 0 0 1 3.9 4.082c.945 1.955 5.877 12.117 5.877 12.117l4.7-9.158 4.7 9.158 7.892-16.2z" transform="translate(-26.642 -15.008)" style="fill:#fff"/>
                    <path data-name="패스 27006" d="M112.05 14.646c-.538-4.249-3.49-9.083-7.693-12.6 4.531 1.627 8.454.843 10.225-2.047.538 4.249 3.49 9.083 7.692 12.6-4.529-1.627-8.453-.842-10.224 2.047" transform="translate(-46.981)" style="fill:#ec1c24"/>
                </g>
            </g>
        </g>
    </g>
</svg>
